<svg width="120" height="120" viewBox="0 0 120 120" fill="none" xmlns="http://www.w3.org/2000/svg">
<path d="M119.295 69.18C119.755 66.185 120 63.12 120 60C120 58.18 119.92 56.38 119.76 54.605C118.36 39.165 105.99 26.18 78.845 26.18H63.11C59.34 26.18 42.855 25.92 42.855 18.885C42.855 9.87999 76.03 8.47001 99.325 15.74L99.735 15.06C89.155 5.695 75.245 0 60 0C49.945 0 40.46 2.45 32.15 6.845C20.27 13.13 13.11 22.7 13.11 31.425C13.11 48.085 27.655 54.735 45.505 54.735C52.395 54.735 77.435 54.735 83.395 54.735C99.605 54.735 117.18 54.49 118.54 69.18H119.295Z" fill="#3C0F19"/>
<path d="M0.704987 50.8199C0.244987 53.8149 0 56.8799 0 59.9999C0 61.8199 0.0799902 63.6199 0.23999 65.3949C1.63999 80.8349 14.01 93.8199 41.155 93.8199H56.89C60.66 93.8199 77.145 94.0799 77.145 101.115C77.145 110.12 43.97 111.53 20.675 104.26L20.265 104.94C30.845 114.305 44.755 120 60 120C70.055 120 79.54 117.55 87.85 113.155C99.73 106.87 106.89 97.2999 106.89 88.575C106.89 71.915 92.345 65.0949 74.495 65.0949C67.605 65.0949 42.565 65.2599 36.605 65.2599C20.395 65.2599 2.81999 65.5049 1.45999 50.8149H0.704987V50.8199Z" fill="#3C0F19"/>
</svg>
